<?xml version="1.0" standalone="no"?>
<!DOCTYPE svg PUBLIC "-//W3C//DTD SVG 20010904//EN"
 "http://www.w3.org/TR/2001/REC-SVG-20010904/DTD/svg10.dtd">
<svg version="1.0" xmlns="http://www.w3.org/2000/svg"
 width="512.000000pt" height="512.000000pt" viewBox="0 0 512.000000 512.000000"
 preserveAspectRatio="xMidYMid meet">
<metadata>
Created by potrace 1.15, written by Peter Selinger 2001-2017
</metadata>
<g transform="translate(0.000000,512.000000) scale(0.100000,-0.100000)"
fill="#000000" stroke="none">
<path d="M2230 3159 c-72 -7 -247 -43 -256 -51 -2 -3 20 -67 50 -144 l53 -139
109 -3 c60 -2 172 0 250 3 l141 7 -63 166 -62 167 -74 1 c-40 1 -107 -2 -148
-7z"/>
<path d="M2500 3153 c0 -5 27 -78 59 -163 l59 -155 116 -2 c64 -1 116 1 116 4
0 4 -55 63 -122 132 -68 69 -137 140 -154 158 -29 29 -74 45 -74 26z"/>
<path d="M1829 3080 c-40 -12 -310 -158 -348 -189 -46 -36 -48 -46 -9 -61 40
-16 513 -27 507 -13 -2 5 -26 68 -54 141 -27 73 -54 132 -60 131 -5 0 -22 -4
-36 -9z"/>
<path d="M3503 2575 c-143 -44 -210 -130 -263 -337 -15 -60 -35 -117 -45 -128
-18 -20 -34 -20 -645 -20 -718 0 -650 -10 -676 99 -29 127 -74 222 -130 278
-29 29 -57 53 -63 53 -6 0 10 -19 34 -41 26 -24 59 -70 78 -108 30 -61 32 -73
32 -166 0 -90 -3 -106 -28 -158 -37 -74 -110 -147 -184 -184 -53 -25 -68 -28
-163 -28 -94 0 -111 3 -161 27 -199 98 -280 356 -167 534 24 38 26 45 9 29
-22 -19 -82 -136 -117 -230 -25 -65 -50 -78 -133 -69 -35 3 -84 12 -108 19
l-44 13 64 -71 c35 -40 182 -209 327 -377 146 -168 277 -318 291 -335 15 -16
147 -169 295 -340 148 -171 273 -315 279 -321 5 -6 127 -147 270 -313 l260
-302 135 5 c633 25 1197 272 1646 720 258 259 444 547 568 878 20 53 36 104
36 113 0 8 -89 118 -197 244 -164 190 -199 226 -205 210 -4 -10 -14 -19 -22
-19 -8 0 -25 -14 -38 -30 -13 -17 -36 -47 -52 -66 -25 -30 -28 -39 -18 -55 7
-10 12 -22 12 -25 0 -3 -54 -5 -121 -3 l-121 4 -28 31 c-19 23 -32 54 -44 110
-31 145 -56 204 -104 256 -53 57 -147 106 -217 113 l-50 5 55 -15 c219 -61
340 -316 246 -520 -33 -73 -112 -155 -183 -191 -53 -27 -67 -29 -163 -29 -96
0 -110 3 -165 29 -76 38 -143 105 -181 181 -26 54 -29 70 -29 160 0 87 3 107
27 157 49 106 139 183 248 212 41 11 47 15 25 15 -16 0 -49 -6 -72 -14z"/>
<path d="M1390 2441 c-51 -16 -89 -42 -123 -81 -123 -144 -30 -372 159 -388
109 -9 197 39 240 132 56 120 9 257 -109 318 -44 22 -128 32 -167 19z m147
-56 c190 -95 124 -375 -89 -375 -177 1 -262 215 -134 339 65 63 143 75 223 36z"/>
<path d="M3581 2439 c-166 -50 -227 -257 -115 -388 71 -83 191 -105 292 -55
174 87 173 336 -2 426 -46 23 -128 31 -175 17z m124 -40 c52 -15 119 -82 135
-136 27 -89 -20 -196 -103 -234 -143 -64 -296 39 -285 192 6 77 40 128 109
163 58 29 84 31 144 15z"/>
</g>
</svg>
